<svg width="105" height="109" viewBox="0 0 105 109" fill="none" xmlns="http://www.w3.org/2000/svg">
<g clip-path="url(#clip0_202_16)">
<path d="M70.3132 71.7601C69.3197 71.7601 68.2677 71.7023 67.2157 71.6155L67.6248 66.3835C79.1966 67.5109 86.4435 61.1804 89.1319 55.428C90.7683 51.9015 90.856 48.4616 89.3072 46.496C85.8883 42.0733 77.5894 46.4382 77.5017 46.4671L75.3978 41.7554C75.8653 41.4952 87.0572 35.5116 92.9307 43.0851C95.736 46.7272 95.9113 52.364 93.369 57.8562C90.2715 64.4757 82.4694 71.7601 70.3132 71.7601Z" fill="#EDE8DF"/>
<path d="M93.6904 44.1546C95.4145 50.6585 91.6742 59.3304 84.2811 64.9093C78.6414 69.1586 72.2711 70.6039 67.4203 69.2164L67.2157 71.6155C68.2677 71.7312 69.3197 71.7601 70.3132 71.7601C82.4694 71.7601 90.2715 64.4757 93.369 57.7984C95.7067 52.8554 95.7652 47.7679 93.6904 44.1546Z" fill="#D4CCBF"/>
<path d="M90.33 47.8257C89.1319 43.7499 83.7551 42.0155 78.3199 43.9811C77.7647 44.1835 77.268 44.4147 76.7712 44.646L77.5602 46.4093C77.6478 46.3514 85.9175 42.0155 89.3657 46.4382C90.2423 47.5655 90.593 49.1264 90.4176 50.9475C90.6222 49.9069 90.6222 48.8374 90.33 47.8257Z" fill="#D4CCBF"/>
<path d="M47.0237 90C66.7612 90 82.7616 86.4539 82.7616 82.0797C82.7616 77.7054 66.7612 74.1594 47.0237 74.1594C27.2862 74.1594 11.2858 77.7054 11.2858 82.0797C11.2858 86.4539 27.2862 90 47.0237 90Z" fill="#E3DBCE"/>
<path d="M47.0237 88.5257C67.4713 88.5257 84.0473 84.9797 84.0473 80.6054C84.0473 76.2311 67.4713 72.6851 47.0237 72.6851C26.5761 72.6851 10 76.2311 10 80.6054C10 84.9797 26.5761 88.5257 47.0237 88.5257Z" fill="#FAF4EB"/>
<path d="M65.7839 80.6055C65.7839 82.918 57.3973 84.768 47.0237 84.768C36.6792 84.768 28.2635 82.8891 28.2635 80.6055C28.2635 78.293 36.65 76.443 47.0237 76.443C57.3973 76.4141 65.7839 78.293 65.7839 80.6055Z" fill="#D4CCBF"/>
<path d="M14.3832 35.1358C14.3832 43.721 17.5684 64.7936 28.5849 78.0616C28.5849 78.0616 33.2603 83.4382 47.0237 83.4382C60.787 83.4382 65.4625 78.0616 65.4625 78.0616C76.479 64.7936 79.6641 43.721 79.6641 35.1358H14.3832Z" fill="#EDE8DF"/>
<path d="M72.9724 35.1358C73.4984 49.4444 67.8294 63.9554 56.6083 73.5812C51.0855 78.3218 44.832 81.2991 38.4325 82.6288C40.7995 83.1202 43.634 83.4382 47.0237 83.4382C60.787 83.4382 65.4625 78.0616 65.4625 78.0616C76.479 64.7936 79.6641 43.721 79.6641 35.1358H72.9724Z" fill="#E3DBCE"/>
<path d="M25.1075 36.7546L18.2113 34.2976C18.2113 34.2976 19.4678 63.2617 32.033 77.1367C32.033 77.1656 22.799 55.746 25.1075 36.7546Z" fill="#E3DBCE"/>
<path d="M47.0237 41.8421C65.0666 41.8421 79.6933 38.7749 79.6933 34.9914C79.6933 31.2078 65.0666 28.1406 47.0237 28.1406C28.9807 28.1406 14.354 31.2078 14.354 34.9914C14.354 38.7749 28.9807 41.8421 47.0237 41.8421Z" fill="#FAF4EB"/>
<path d="M47.0237 41.0039C63.5012 41.0039 76.8589 38.5062 76.8589 35.425C76.8589 32.3439 63.5012 29.8461 47.0237 29.8461C30.5462 29.8461 17.1885 32.3439 17.1885 35.425C17.1885 38.5062 30.5462 41.0039 47.0237 41.0039Z" fill="#E3DBCE"/>
<path d="M47.0237 41.0327C63.0493 41.0327 76.0406 39.1044 76.0406 36.7257C76.0406 34.347 63.0493 32.4186 47.0237 32.4186C30.998 32.4186 18.0067 34.347 18.0067 36.7257C18.0067 39.1044 30.998 41.0327 47.0237 41.0327Z" fill="#D5DBC6"/>
<path d="M47.3451 33.546C46.3224 33.546 45.3288 33.546 44.3645 33.5749C55.4103 33.7772 63.9137 35.1069 63.9137 36.7257C63.9137 38.3444 55.4103 39.6452 44.3645 39.8764C45.358 39.9053 46.3516 39.9053 47.3451 39.9053C59.7935 39.9053 69.8749 38.4889 69.8749 36.7257C69.8749 34.9624 59.7935 33.546 47.3451 33.546Z" fill="#EBE3D6"/>
<path d="M55.6733 34.9335C57.5142 35.3093 58.5954 35.7718 58.5954 36.2632C58.5954 37.5929 50.7933 38.6624 41.2086 38.6624C36.5332 38.6624 32.2668 38.4022 29.1401 37.9975C32.2668 38.6335 37.5851 39.0671 43.634 39.0671C53.2479 39.0671 61.0208 37.9975 61.0208 36.6679C61.0208 35.9741 58.9753 35.3671 55.6733 34.9335Z" fill="#EBE3D6"/>
<path d="M76.68 34.4456C76.68 38.9992 63.2897 42.6907 46.7721 42.6907C30.2544 42.6907 16.8641 38.9992 16.8641 34.4456C16.8641 29.892 30.2544 26.2005 46.7721 26.2005C63.2897 26.2005 76.68 29.892 76.68 34.4456Z" fill="#F1AF72"/>
<path d="M43.9838 39.7807C27.8981 21.3179 73.1191 -11.6967 38.437 -32C38.437 -32 65.0908 -25.6444 62.8137 -7.26788C60.5366 11.1087 37.1233 21.1453 43.9838 39.7807Z" fill="url(#paint0_linear_202_16)"/>
<path d="M57.7121 39.7807C41.6264 21.3179 86.8473 -11.6967 52.1653 -32C52.1653 -32 78.8191 -25.6444 76.542 -7.26788C74.2649 11.1087 50.8516 21.1453 57.7121 39.7807Z" fill="url(#paint1_linear_202_16)"/>
</g>
<defs>
<linearGradient id="paint0_linear_202_16" x1="68.0816" y1="88.4042" x2="62.9833" y2="-34.2029" gradientUnits="userSpaceOnUse">
<stop stop-color="#FF7A00"/>
<stop offset="1" stop-color="white" stop-opacity="0"/>
</linearGradient>
<linearGradient id="paint1_linear_202_16" x1="68.0816" y1="88.4042" x2="62.9833" y2="-34.2029" gradientUnits="userSpaceOnUse">
<stop stop-color="#FF7A00"/>
<stop offset="1" stop-color="white" stop-opacity="0"/>
</linearGradient>
<clipPath id="clip0_202_16">
<rect width="105" height="109" fill="white"/>
</clipPath>
</defs>
</svg>
